<?xml version="1.0" encoding="UTF-8"?>
<svg id="Layer_1_copy" data-name="Layer 1 copy" xmlns="http://www.w3.org/2000/svg" version="1.1" viewBox="0 0 24 24">
  <defs>
    <style>
      .cls-1 {
        fill: #a8afb8;
      }

      .cls-1, .cls-2 {
        stroke-width: 0px;
      }

      .cls-2 {
        fill: #000;
      }
    </style>
  </defs>
  <path class="cls-1" d="M2.5,13.4c-.4-.4-.6-.9-.6-1.4s.2-1,.6-1.4.9-.6,1.4-.6,1,.2,1.4.6.6.9.6,1.4-.2,1-.6,1.4-.9.6-1.4.6-1-.2-1.4-.6Z"/>
  <path class="cls-1" d="M18.6,13.4c-.4-.4-.6-.9-.6-1.4s.2-1,.6-1.4.9-.6,1.4-.6,1,.2,1.4.6.6.9.6,1.4-.2,1-.6,1.4-.9.6-1.4.6-1-.2-1.4-.6Z"/>
  <g>
    <path class="cls-2" d="M12,13.4c-.4-.4-.6-.9-.6-1.4s.2-1,.6-1.4.9-.6,1.5-.6,1.1.2,1.5.6.6.9.6,1.4-.2,1-.6,1.4-.9.6-1.5.6-1.1-.2-1.5-.6Z"/>
    <path class="cls-2" d="M8.8,13.4c-.4-.4-.6-.9-.6-1.4s.2-1,.6-1.4.9-.6,1.5-.6,1.1.2,1.5.6.6.9.6,1.4-.2,1-.6,1.4-.9.6-1.5.6-1.1-.2-1.5-.6Z"/>
    <rect class="cls-2" x="10.2" y="10" width="3.6" height="4" transform="translate(24.1 24) rotate(-180)"/>
  </g>
</svg>